<?xml version="1.0" standalone="no"?>
<!DOCTYPE svg PUBLIC "-//W3C//DTD SVG 20010904//EN"
 "http://www.w3.org/TR/2001/REC-SVG-20010904/DTD/svg10.dtd">
<svg version="1.0" xmlns="http://www.w3.org/2000/svg"
 width="112.000000pt" height="2253.000000pt" viewBox="0 0 112.000000 2253.000000"
 preserveAspectRatio="xMidYMid meet">

<g transform="translate(0.000000,2253.000000) scale(0.100000,-0.100000)"
fill="#000000" stroke="none">
<path d="M451 22491 c-27 -25 -31 -36 -31 -82 0 -48 3 -55 40 -89 l40 -37 0
-2016 0 -2017 30 0 30 0 0 2019 0 2019 34 26 c95 72 53 206 -64 206 -39 0 -54
-5 -79 -29z"/>
<path d="M552 18016 c-49 -23 -82 -64 -82 -102 0 -18 4 -35 8 -38 5 -3 27 4
50 16 117 57 208 -65 139 -187 -19 -34 -77 -85 -97 -85 -3 0 -11 17 -16 38
-13 52 -36 48 -50 -8 -10 -44 -12 -45 -45 -42 -78 8 -139 50 -170 117 -24 52
-24 76 2 109 23 30 54 33 81 9 28 -25 35 -6 8 22 -42 45 -113 28 -145 -35 -21
-41 -19 -116 6 -167 31 -64 110 -130 180 -151 53 -15 59 -20 59 -44 0 -36 -11
-35 -107 4 -103 41 -187 43 -265 5 -30 -15 -65 -38 -78 -51 l-23 -25 24 -21
c13 -12 49 -33 79 -48 80 -38 160 -36 263 6 95 39 107 40 107 8 0 -19 -7 -26
-32 -31 -54 -11 -128 -56 -167 -102 -99 -111 -74 -283 41 -283 25 0 45 7 58
20 26 26 16 48 -10 25 -43 -39 -108 14 -96 78 4 19 17 50 29 68 27 41 120 91
161 87 26 -3 31 -9 40 -48 14 -57 36 -59 52 -5 7 25 17 39 25 37 20 -5 78 -63
95 -94 17 -33 18 -98 2 -133 -22 -50 -96 -70 -148 -40 -43 24 -60 19 -60 -18
0 -93 137 -148 246 -98 117 53 160 215 93 349 -40 80 -113 139 -196 157 -26 5
-33 12 -33 31 0 13 3 24 6 24 3 0 56 -24 117 -52 102 -48 119 -53 182 -53 58
0 78 5 117 27 48 29 108 93 108 116 0 7 -22 35 -49 62 -37 37 -63 53 -105 65
-77 23 -136 13 -244 -40 -127 -61 -132 -62 -132 -28 0 26 5 30 46 41 131 35
214 147 214 287 0 80 -37 157 -96 198 -50 35 -140 46 -192 23z"/>
<path d="M500 14536 c0 -2007 0 -2025 -20 -2031 -58 -18 -82 -125 -40 -178 42
-53 138 -53 179 -1 44 56 30 138 -29 172 l-30 17 0 2023 0 2022 -30 0 -30 0 0
-2024z"/>
<path d="M484 10236 c-45 -20 -64 -53 -64 -107 0 -40 5 -53 31 -78 17 -17 35
-31 40 -31 5 0 9 -794 9 -2025 l0 -2025 30 0 30 0 0 2023 0 2022 30 17 c17 10
38 34 47 55 13 33 14 43 2 77 -24 67 -94 100 -155 72z"/>
<path d="M539 5730 c-44 -23 -69 -59 -69 -100 0 -34 18 -39 60 -15 14 8 37 14
52 15 129 1 148 -176 29 -265 -43 -31 -51 -31 -51 -2 0 30 -24 62 -38 53 -7
-4 -15 -25 -18 -47 -6 -36 -9 -39 -38 -39 -47 0 -137 49 -163 89 -12 18 -25
49 -29 68 -12 64 53 117 96 78 26 -23 36 -1 10 25 -27 27 -89 27 -119 -1 -63
-59 -55 -178 19 -262 40 -45 145 -107 182 -107 13 0 18 -8 18 -30 0 -16 -5
-30 -11 -30 -6 0 -45 14 -87 32 -103 42 -192 45 -272 7 -30 -14 -66 -36 -80
-48 l-25 -21 38 -34 c79 -71 209 -87 320 -40 34 15 74 30 90 35 25 7 27 5 27
-19 0 -24 -6 -29 -59 -44 -71 -21 -149 -87 -181 -154 -18 -36 -21 -58 -18
-106 4 -53 9 -65 36 -89 39 -35 88 -38 120 -9 23 21 29 40 13 40 -5 0 -14 -7
-21 -15 -19 -23 -56 -18 -79 11 -27 34 -26 59 2 114 30 61 93 104 153 104 l47
1 11 -45 c14 -57 36 -59 52 -5 13 44 21 45 66 14 67 -48 90 -162 42 -218 -34
-41 -79 -49 -137 -23 -25 11 -48 18 -51 14 -3 -3 -6 -20 -6 -38 0 -67 88 -121
182 -112 180 18 253 273 122 426 -34 40 -141 102 -176 102 -13 0 -18 7 -18 26
0 31 11 28 113 -22 137 -69 217 -76 310 -26 44 24 107 87 107 109 0 19 -64 85
-108 111 -40 23 -58 27 -122 27 -65 0 -84 -5 -138 -33 -34 -18 -85 -41 -112
-52 l-50 -20 0 29 c0 25 5 30 43 39 91 23 175 102 205 191 7 19 12 61 12 95 0
68 -30 145 -71 183 -58 53 -163 68 -230 33z"/>
<path d="M500 2263 l0 -2016 -40 -37 c-36 -34 -40 -41 -40 -86 1 -74 41 -114
115 -114 111 0 150 136 59 208 l-34 27 0 2018 0 2017 -30 0 -30 0 0 -2017z"/>
</g>
</svg>
