<?xml version="1.0" standalone="no"?>
<!DOCTYPE svg PUBLIC "-//W3C//DTD SVG 20010904//EN"
 "http://www.w3.org/TR/2001/REC-SVG-20010904/DTD/svg10.dtd">
<svg version="1.0" xmlns="http://www.w3.org/2000/svg"
 width="512.000000pt" height="512.000000pt" viewBox="0 0 512.000000 512.000000"
 preserveAspectRatio="xMidYMid meet">

<g transform="translate(0.000000,512.000000) scale(0.100000,-0.100000)"
fill="#000000" stroke="none">
<path d="M2320 4679 c-637 -78 -1195 -421 -1543 -949 -171 -260 -283 -555
-332 -875 -20 -131 -23 -417 -6 -550 52 -396 208 -765 458 -1082 79 -101 264
-281 371 -362 228 -172 484 -296 758 -366 180 -47 332 -65 534 -65 357 0 658
71 968 229 219 112 387 237 562 417 281 290 466 632 554 1024 37 168 48 275
48 460 0 337 -66 626 -211 925 -303 623 -875 1054 -1561 1177 -132 23 -473 33
-600 17z m545 -84 c55 -8 125 -22 155 -31 124 -37 245 -78 250 -84 3 -4 21
-12 41 -19 20 -6 51 -23 69 -36 19 -14 38 -25 44 -25 10 0 81 -46 104 -67 7
-7 17 -13 22 -13 10 0 90 -73 90 -83 0 -3 -15 -4 -32 0 -18 3 -30 3 -26 -2 4
-4 -8 -20 -26 -35 -44 -39 -83 -115 -92 -177 -5 -44 -9 -50 -20 -38 -8 7 -14
17 -14 22 0 20 -135 281 -151 291 -16 10 -14 0 12 -71 17 -45 44 -116 59 -157
16 -41 31 -98 35 -125 4 -28 9 -58 12 -67 9 -35 -13 -17 -51 42 -21 34 -40 59
-41 58 -2 -3 4 -139 35 -776 26 -545 26 -724 0 -828 -24 -94 -68 -164 -130
-205 -49 -33 -127 -59 -175 -59 l-32 0 -6 -147 c-10 -229 -38 -336 -115 -450
-55 -82 -67 -87 -36 -16 44 100 54 170 54 406 l0 217 -26 10 c-83 32 -175 117
-359 330 -121 140 -325 345 -325 326 0 -3 21 -36 47 -73 25 -38 60 -97 77
-133 28 -59 31 -74 31 -160 0 -84 -3 -102 -28 -153 -48 -96 -88 -117 -372
-188 -291 -73 -467 -142 -582 -229 -41 -31 -49 -43 -61 -90 -7 -31 -11 -93 -9
-141 2 -69 8 -97 31 -142 68 -141 245 -218 461 -203 130 9 127 7 160 93 16 41
46 102 67 135 21 32 38 61 38 64 0 3 -21 30 -47 60 l-46 55 53 54 c48 49 56
53 70 40 15 -13 24 -10 91 36 76 52 144 112 160 140 6 12 2 25 -13 44 -13 17
-22 41 -21 60 1 42 37 111 61 117 20 6 52 -8 64 -26 13 -19 9 -85 -7 -123 -8
-19 -15 -57 -15 -84 0 -50 -13 -65 -25 -29 -6 18 -14 12 -71 -49 -35 -38 -88
-84 -116 -102 -29 -18 -55 -34 -57 -36 -3 -2 12 -20 32 -41 l37 -38 -61 -79
c-92 -120 -161 -255 -131 -255 6 0 57 16 114 36 128 44 299 127 398 191 70 46
140 112 140 133 0 5 -27 76 -60 158 -33 82 -67 183 -76 223 -8 41 -22 82 -31
91 -14 16 -14 24 2 85 10 37 21 74 25 81 6 12 142 -153 189 -231 l23 -37 -51
20 c-50 19 -51 19 -51 0 0 -11 23 -76 51 -146 43 -106 52 -138 52 -190 0 -80
-27 -164 -69 -212 -90 -106 -396 -272 -619 -336 -92 -27 -100 -40 -89 -138 13
-119 71 -182 169 -182 84 0 140 38 323 222 283 282 375 337 773 452 79 23 147
45 151 49 4 4 1 45 -8 91 -21 113 -15 237 15 306 12 28 42 70 66 94 39 38 51
44 98 48 53 4 56 3 95 -36 79 -79 105 -258 57 -395 -18 -50 -95 -143 -139
-166 -34 -19 -33 -29 9 -78 75 -88 207 -114 310 -61 55 28 89 61 99 94 4 12
-5 244 -19 515 -50 968 -54 1068 -66 1384 -8 221 -15 326 -24 340 -11 17 -7
32 26 104 23 49 43 80 48 75 34 -36 163 -456 146 -473 -6 -5 -4 -7 -48 58
l-36 54 5 -129 c2 -71 9 -280 14 -464 6 -184 18 -459 27 -610 23 -390 23 -734
0 -825 -58 -229 -182 -328 -369 -295 -122 23 -195 81 -240 193 -9 23 -22 41
-30 41 -37 -4 -555 -187 -582 -206 -68 -47 -204 -167 -349 -307 -103 -99 -168
-154 -202 -170 -182 -85 -380 61 -393 291 l-5 78 -66 -7 c-220 -26 -391 23
-501 144 -74 81 -95 156 -94 335 1 148 -1 153 -51 98 -53 -59 -161 -78 -233
-41 -50 25 -119 101 -145 159 -16 36 -21 67 -21 132 0 111 27 199 99 318 30
50 55 93 55 95 0 3 -20 12 -45 21 -98 38 -165 157 -165 295 0 122 37 213 148
359 55 73 55 74 39 102 -22 37 -21 74 3 151 24 78 70 148 169 257 l75 84 0 76
c1 66 5 84 29 124 15 26 43 59 62 74 183 139 1343 454 1673 454 96 0 134 -15
158 -62 22 -42 13 -105 -27 -188 -28 -56 -64 -96 -265 -295 -129 -127 -234
-227 -234 -224 0 3 9 32 20 63 28 82 73 138 212 264 179 160 200 184 196 217
-2 17 -15 37 -31 49 -25 18 -42 21 -135 20 -125 -1 -239 -23 -627 -121 -412
-103 -691 -192 -868 -275 -85 -40 -87 -42 -70 -61 31 -35 763 -617 776 -617 7
0 41 9 77 20 37 12 108 23 171 27 l107 6 -24 54 c-30 67 -41 146 -49 346 -4
87 -11 173 -16 190 -8 27 -4 40 32 100 22 38 42 67 44 65 14 -14 105 -264 110
-303 l7 -50 -36 34 -36 35 0 -90 c1 -193 54 -329 179 -453 l78 -76 -8 -70 c-4
-39 -8 -74 -9 -80 0 -5 -4 -16 -9 -24 -7 -10 -23 1 -68 46 -33 33 -81 70 -108
83 -55 26 -158 36 -244 23 l-54 -8 110 -97 c134 -119 312 -302 424 -437 54
-66 103 -114 138 -136 30 -19 56 -34 57 -32 1 1 -4 130 -11 287 -8 157 -19
429 -25 605 -6 176 -15 339 -21 363 -9 40 -7 47 32 113 23 38 45 66 49 62 4
-4 32 -78 63 -164 38 -105 58 -179 62 -225 l7 -69 -47 50 -46 50 7 -220 c3
-121 14 -369 23 -550 l16 -330 66 1 c75 1 170 39 191 77 15 28 6 321 -27 852
-14 226 -30 529 -35 674 -8 189 -15 271 -25 290 -13 25 -11 32 16 79 16 28 29
55 29 59 0 15 -59 -51 -70 -78 -14 -33 -30 -38 -30 -10 0 11 -12 42 -26 69
-22 42 -34 54 -77 73 -45 19 -64 21 -137 16 -78 -5 -557 -88 -696 -120 -51
-12 -61 -12 -73 0 -7 8 -11 15 -10 17 16 10 80 34 166 62 93 30 174 64 118 50
-97 -25 -345 -98 -502 -148 -135 -43 -193 -66 -196 -78 -6 -23 -197 -79 -286
-84 -19 -2 -21 0 -8 8 14 9 14 11 0 21 -14 10 -11 15 16 34 23 17 29 26 22 35
-7 9 -2 17 19 30 17 9 30 21 30 26 0 8 57 53 140 110 12 8 36 25 53 38 17 12
35 22 40 22 6 0 24 11 41 23 17 13 49 30 71 37 22 7 42 16 45 20 5 7 84 35
185 66 75 24 229 54 325 64 113 12 371 4 495 -15z m804 -555 c36 -114 49 -166
65 -270 l5 -35 -45 50 c-44 48 -46 49 -40 20 3 -16 13 -183 22 -370 10 -187
19 -342 21 -344 5 -7 53 41 53 53 0 6 -9 22 -20 36 -32 41 -22 105 24 158 24
27 50 28 76 2 24 -24 27 -85 5 -137 -8 -19 -15 -57 -15 -84 0 -26 -4 -51 -10
-54 -5 -3 -10 -3 -10 2 0 4 -5 15 -10 23 -7 12 -16 6 -47 -30 l-38 -44 0 -161
c-1 -169 -9 -211 -74 -355 l-20 -45 0 185 c-1 102 -4 208 -7 236 l-7 52 -72
-35 c-49 -23 -84 -33 -107 -31 -32 3 -29 5 69 66 57 35 105 67 106 70 2 4 -2
97 -9 207 -7 110 -20 331 -28 491 -11 196 -20 302 -30 325 -13 33 -12 37 32
118 l46 85 13 -30 c7 -16 30 -85 52 -154z m-767 113 c29 -29 17 -55 -50 -106
-79 -60 -146 -97 -176 -97 -24 0 -54 32 -69 73 -16 44 -47 1 -47 -67 0 -49 7
-76 21 -76 4 0 20 17 34 37 l25 38 0 -38 c0 -21 -9 -56 -20 -77 -26 -50 -57
-53 -94 -9 -33 39 -35 113 -6 178 26 55 25 57 -7 35 -33 -21 -62 -54 -63 -70
0 -18 -23 -23 -93 -18 -49 3 -68 0 -77 -11 -7 -8 -18 -15 -25 -15 -7 0 -18 -6
-24 -14 -16 -19 -151 -19 -151 1 0 8 -4 12 -9 8 -6 -3 -14 2 -19 11 -13 23
-28 11 -57 -46 -16 -31 -25 -66 -25 -94 0 -82 22 -99 55 -43 19 31 20 31 23 8
5 -33 -26 -109 -49 -121 -14 -8 -25 -5 -50 18 -26 23 -33 38 -36 79 -3 28 0
67 7 87 15 46 82 132 110 141 11 4 18 11 15 16 -4 5 -1 9 5 9 7 0 26 6 43 14
82 36 327 108 427 126 36 6 77 15 91 21 47 18 122 28 197 25 58 -2 78 -7 94
-23z m238 -59 c0 -17 -3 -46 -6 -63 -6 -29 -10 -32 -37 -29 -47 5 -54 27 -28
89 33 77 42 86 57 57 8 -13 13 -37 14 -54z m615 27 c3 -5 1 -12 -5 -16 -5 -3
-10 1 -10 9 0 18 6 21 15 7z m13 -66 c-3 -3 -9 2 -12 12 -6 14 -5 15 5 6 7 -7
10 -15 7 -18z m-680 -117 c34 -21 62 -64 62 -95 0 -29 -37 -81 -69 -98 -42
-21 -68 -19 -96 10 -34 33 -35 119 -3 177 19 34 26 38 48 33 14 -4 40 -16 58
-27z m-1245 -45 c-7 -2 -19 -2 -25 0 -7 3 -2 5 12 5 14 0 19 -2 13 -5z m-207
-59 c-31 -60 -41 -120 -27 -156 14 -36 28 -35 49 2 23 41 36 38 27 -7 -9 -50
-37 -97 -59 -101 -25 -5 -64 35 -77 78 -17 55 10 139 63 196 22 24 43 43 45
40 2 -2 -7 -26 -21 -52z m1824 -157 c-34 -61 -47 -129 -31 -169 14 -36 28 -35
49 2 24 42 36 37 28 -12 -8 -46 -33 -95 -54 -103 -41 -16 -86 50 -86 125 0 63
19 109 70 169 49 57 60 51 24 -12z m-1271 -103 c23 -29 28 -83 9 -102 -8 -8
-18 -5 -41 14 -16 14 -35 23 -41 21 -6 -2 -14 -39 -18 -85 -4 -55 -15 -101
-34 -142 -15 -33 -29 -59 -31 -57 -2 2 -10 30 -18 62 -25 94 -51 132 -100 144
-65 16 -86 85 -42 137 20 23 26 25 44 16 28 -15 74 -75 106 -137 l26 -50 1 52
c0 28 5 64 11 80 27 73 90 95 128 47z m2114 -254 c53 -135 87 -242 87 -277 0
-3 -18 17 -41 46 -22 28 -43 51 -45 51 -2 0 -2 -35 1 -77 3 -43 10 -166 15
-273 6 -107 18 -294 26 -415 27 -370 10 -514 -81 -698 -50 -101 -51 -98 -20
68 8 44 14 141 15 215 0 131 -6 244 -50 905 -11 171 -20 336 -20 367 0 31 -5
68 -11 82 -10 21 -7 38 17 105 16 44 31 77 35 73 3 -4 35 -81 72 -172z m-1505
157 c16 -19 23 -60 13 -76 -7 -11 -13 -9 -31 9 -35 35 -44 13 -50 -113 -6
-141 -15 -157 -48 -91 -13 27 -38 66 -54 86 -25 31 -34 36 -57 32 -37 -8 -61
25 -61 84 0 40 2 43 23 36 46 -14 77 -35 108 -74 18 -22 34 -38 37 -35 3 2 9
28 13 56 11 68 32 99 68 99 16 0 33 -6 39 -13z m323 -364 c-36 -73 -44 -115
-31 -164 13 -48 31 -49 59 -6 l21 32 0 -41 c0 -40 -32 -103 -56 -111 -21 -7
-73 48 -84 87 -11 40 -1 111 21 153 11 20 88 107 95 107 2 0 -9 -26 -25 -57z
m-391 -274 c-31 -66 -37 -118 -20 -164 12 -33 28 -29 58 15 l22 33 0 -32 c0
-37 -20 -90 -44 -114 -42 -42 -114 55 -102 139 3 24 13 59 22 77 19 38 84 120
90 114 3 -2 -9 -33 -26 -68z m1094 -16 c-32 -62 -40 -119 -24 -167 14 -43 26
-42 58 4 l22 33 0 -32 c0 -38 -21 -91 -44 -110 -22 -18 -58 -3 -83 35 -22 34
-22 124 0 175 15 36 86 123 94 116 2 -2 -8 -27 -23 -54z m639 -79 c-34 -69
-41 -121 -23 -168 13 -35 36 -33 60 7 l20 32 0 -29 c0 -39 -38 -116 -57 -116
-73 0 -107 121 -62 220 15 34 83 120 94 120 1 0 -13 -30 -32 -66z m-1246 -186
c-10 -27 -28 -41 -100 -76 -48 -24 -91 -42 -96 -40 -5 2 -3 18 4 36 12 27 30
40 97 72 104 50 112 50 95 8z m352 -100 l57 -61 44 52 44 52 72 -78 71 -78
-45 -57 c-25 -32 -48 -58 -51 -58 -4 0 -33 27 -66 60 l-59 60 -48 -47 -48 -47
-63 69 c-34 38 -62 72 -62 77 0 9 86 118 93 118 2 0 30 -28 61 -62z m-1479
-474 c0 -20 -19 -56 -39 -71 -9 -7 -128 -49 -266 -94 -137 -45 -257 -86 -266
-92 -16 -10 -15 -13 7 -43 18 -24 23 -39 18 -58 -9 -38 -20 -40 -59 -11 -61
47 -57 134 9 174 17 10 112 44 211 74 100 31 221 74 270 95 102 45 115 48 115
26z m1101 -64 c10 -6 19 -19 19 -29 0 -26 -22 -42 -40 -31 -23 15 -50 12 -50
-5 0 -8 12 -22 26 -31 21 -14 32 -15 57 -7 80 28 79 28 75 -8 -3 -29 -8 -34
-54 -50 -29 -9 -77 -33 -108 -53 -31 -20 -56 -32 -56 -28 0 4 12 24 26 45 24
35 24 40 10 56 -28 30 -20 79 18 117 37 37 47 40 77 24z m653 -107 c-32 -62
-40 -119 -24 -167 14 -43 26 -42 58 4 l22 33 0 -40 c0 -45 -35 -106 -64 -111
-26 -5 -65 35 -77 80 -12 45 -4 98 22 150 20 39 79 111 86 105 2 -2 -8 -27
-23 -54z m-1425 -23 c78 -39 103 -108 58 -161 -45 -54 -94 -63 -132 -24 -39
38 -32 138 12 187 20 22 16 22 62 -2z m-535 -141 c27 -31 31 -46 20 -73 -8
-21 -19 -20 -54 6 -16 12 -33 19 -36 15 -4 -3 -10 -42 -14 -85 -8 -74 -43
-182 -60 -182 -4 0 -10 19 -14 41 -4 23 -18 66 -33 95 -24 49 -29 54 -58 54
-35 0 -65 32 -65 69 0 28 20 69 37 75 20 8 77 -49 118 -118 l35 -60 0 58 c0
62 11 92 44 118 31 25 51 22 80 -13z m-764 -71 c-22 -49 -25 -90 -9 -121 12
-21 12 -21 37 9 15 17 22 22 18 11 -3 -10 -6 -27 -6 -37 0 -29 -32 -62 -53
-54 -22 8 -47 55 -47 89 0 34 26 94 52 122 12 13 23 23 24 23 2 0 -6 -19 -16
-42z m2370 -424 c-34 -65 -42 -155 -15 -190 15 -19 15 -19 33 2 9 12 23 30 30
40 21 33 3 -66 -20 -103 -23 -38 -45 -42 -77 -12 -67 63 -50 192 37 282 20 20
37 37 39 37 2 0 -10 -25 -27 -56z m-193 -46 c28 -31 36 -70 19 -93 -13 -18
-14 -18 -41 3 -51 41 -57 33 -69 -96 -3 -30 -17 -79 -32 -110 l-27 -57 -18 60
c-10 33 -28 79 -41 103 -19 36 -27 42 -55 42 -65 0 -95 83 -49 136 23 27 24
28 49 11 32 -21 68 -68 101 -132 l25 -50 1 45 c0 66 17 116 47 140 34 26 65
25 90 -2z m-1547 -59 c-39 -76 -22 -174 20 -119 l20 25 0 -23 c0 -13 -7 -36
-15 -52 -39 -75 -110 9 -85 100 9 34 62 110 76 110 3 0 -5 -18 -16 -41z m969
-51 c-35 -65 -45 -124 -29 -173 14 -42 26 -41 58 5 l22 33 0 -39 c0 -41 -30
-101 -54 -110 -41 -16 -90 54 -89 126 1 56 23 111 69 167 48 58 58 54 23 -9z"/>
<path d="M2340 4460 c-18 -12 -2 -12 25 0 13 6 15 9 5 9 -8 0 -22 -4 -30 -9z"/>
<path d="M2030 4385 c-91 -24 -173 -44 -182 -44 -10 -1 -42 -10 -72 -22 -40
-14 -61 -29 -76 -53 -26 -44 -25 -51 3 -22 13 13 50 33 83 45 50 19 375 118
439 134 16 4 15 5 -5 5 -14 0 -99 -20 -190 -43z"/>
<path d="M1121 3514 c-121 -133 -172 -304 -89 -304 10 0 41 21 68 46 41 38 50
43 50 27 0 -25 -44 -110 -73 -141 -26 -28 -69 -52 -94 -52 -12 0 -38 -32 -76
-91 -67 -103 -103 -178 -123 -252 -49 -186 44 -304 206 -263 91 24 125 45 364
225 121 92 270 200 331 241 l109 73 -45 41 c-25 23 -159 147 -298 276 -139
129 -256 236 -261 238 -4 2 -35 -27 -69 -64z m324 -249 c31 -30 33 -84 5 -157
-12 -31 -20 -77 -20 -110 0 -63 -10 -73 -29 -32 l-12 27 -36 -44 c-86 -102
-160 -159 -278 -215 -73 -35 -155 -55 -155 -38 0 5 62 47 137 94 124 78 293
217 293 242 0 5 -11 26 -25 46 -30 43 -31 82 -6 137 35 79 80 96 126 50z"/>
<path d="M1375 3200 c-9 -15 4 -66 19 -80 22 -17 31 37 11 66 -17 27 -21 28
-30 14z"/>
<path d="M1805 2869 c-50 -28 -184 -122 -300 -208 -342 -256 -390 -287 -468
-297 l-47 -7 -60 -100 c-91 -152 -119 -277 -87 -388 35 -118 122 -148 228 -78
30 20 105 77 168 127 189 152 271 187 695 297 279 73 346 104 346 165 0 77
-168 326 -322 478 l-64 62 -89 -51z m-21 -341 l58 -51 23 29 c12 16 31 39 42
52 l18 24 78 -62 c42 -34 77 -66 77 -71 0 -5 -17 -35 -37 -67 -21 -31 -38 -59
-40 -61 -1 -2 -28 17 -60 41 -32 25 -64 48 -71 52 -8 5 -28 -9 -55 -39 l-42
-47 -70 58 c-39 31 -70 62 -69 68 1 16 73 126 82 126 5 0 34 -23 66 -52z
m-254 -108 c28 -28 36 -68 17 -88 -15 -15 -18 -14 -40 6 -43 41 -51 31 -61
-79 -4 -55 -41 -159 -56 -159 -4 0 -10 17 -14 38 -3 20 -17 61 -30 90 -22 46
-29 52 -55 52 -33 0 -71 39 -71 72 0 25 28 78 40 78 20 0 80 -66 115 -124 l35
-60 0 58 c0 108 65 171 120 116z m-445 -226 c-35 -66 -35 -184 1 -184 7 0 21
14 29 31 9 17 19 28 22 26 11 -12 -9 -84 -31 -112 -23 -29 -24 -29 -51 -11
-55 36 -68 122 -29 200 14 26 72 96 81 96 1 0 -9 -21 -22 -46z"/>
<path d="M2350 2090 c0 -27 21 -70 31 -64 13 8 11 58 -3 72 -18 18 -28 15 -28
-8z"/>
<path d="M3480 1967 c-34 -17 -50 -53 -50 -113 0 -46 32 -191 49 -221 10 -18
128 53 153 92 22 35 18 73 -14 148 -20 46 -77 107 -101 107 -7 0 -23 -6 -37
-13z"/>
<path d="M3770 3267 c0 -13 6 -31 13 -41 13 -18 14 -18 21 -1 8 23 -1 52 -19
59 -11 4 -15 -2 -15 -17z"/>
<path d="M3014 3865 c-9 -24 5 -65 22 -65 23 0 54 19 54 34 0 18 -33 46 -54
46 -9 0 -19 -7 -22 -15z"/>
<path d="M2370 1714 c-17 -20 -2 -67 23 -72 21 -4 57 24 57 44 0 14 -38 44
-56 44 -6 0 -17 -7 -24 -16z"/>
</g>
</svg>
