<?xml version="1.0" standalone="no"?>
<!DOCTYPE svg PUBLIC "-//W3C//DTD SVG 20010904//EN"
 "http://www.w3.org/TR/2001/REC-SVG-20010904/DTD/svg10.dtd">
<svg version="1.0" xmlns="http://www.w3.org/2000/svg"
 width="521.000000pt" height="1024.000000pt" viewBox="0 0 521.000000 1024.000000"
 preserveAspectRatio="xMidYMid meet">

<g transform="translate(0.000000,1024.000000) scale(0.100000,-0.100000)"
fill="#000000" stroke="none">
<path d="M2214 10163 l-40 -68 7 -510 c8 -623 19 -4485 13 -4432 -5 35 -7 37
-42 37 -97 0 -462 -110 -627 -189 -151 -72 -361 -196 -468 -277 -244 -185
-511 -478 -677 -744 -82 -130 -194 -370 -243 -520 -95 -286 -131 -520 -130
-855 0 -255 17 -405 72 -631 168 -685 684 -1333 1332 -1673 260 -137 492 -208
864 -267 147 -23 488 -23 670 1 625 80 1161 363 1600 845 175 192 308 386 420
615 117 237 187 464 226 729 25 171 27 585 4 763 -104 791 -600 1519 -1300
1910 -257 143 -597 262 -828 289 l-57 7 0 -55 0 -54 148 -33 c409 -91 757
-263 1057 -523 536 -464 843 -1085 874 -1765 25 -568 -107 -1068 -395 -1495
-426 -631 -1036 -1019 -1754 -1114 -159 -21 -568 -15 -730 11 -437 68 -849
256 -1171 532 -504 433 -791 927 -886 1523 -26 166 -26 647 0 805 62 369 190
698 375 965 346 497 797 841 1310 1000 83 25 339 90 357 90 3 0 5 -30 3 -67
l-3 -66 -110 -28 c-380 -96 -746 -278 -1002 -498 -99 -86 -266 -269 -337 -371
-261 -376 -416 -755 -478 -1165 -20 -137 -17 -530 5 -675 68 -438 223 -789
505 -1139 185 -230 445 -416 700 -501 161 -53 395 -89 602 -90 l75 -1 27 -57
c38 -78 80 -105 175 -110 64 -4 77 -1 124 24 29 16 92 68 140 116 48 49 89 88
92 88 3 0 10 -14 17 -30 34 -82 136 -121 215 -82 51 25 106 89 138 162 l23 53
21 -35 c34 -59 86 -91 152 -96 71 -5 123 18 175 80 53 62 70 128 63 252 -3 56
-9 111 -12 123 -7 22 -5 23 53 23 145 0 376 64 541 151 307 160 536 422 644
735 46 133 92 321 114 464 24 162 24 503 0 660 -40 252 -111 476 -228 720
-178 368 -448 677 -789 902 -211 139 -487 256 -755 319 -55 12 -100 23 -101
23 -1 1 4 525 11 1166 11 1072 9 1885 -9 3243 -3 220 -1 395 4 392 4 -3 23
-26 40 -53 l32 -47 -7 60 c-3 33 -11 78 -16 100 -18 73 -112 365 -119 365 -3
0 -29 -39 -57 -87 l-52 -86 18 -36 c17 -34 20 -123 36 -1356 15 -1163 16
-1458 5 -2485 -7 -641 -13 -1165 -14 -1166 0 0 -45 1 -98 4 l-98 4 0 2412 c1
1897 3 2408 13 2395 77 -99 77 -99 51 28 -13 66 -108 374 -121 396 -3 5 -27
-28 -55 -74 l-49 -82 15 -38 c13 -32 17 -183 26 -1026 11 -1114 13 -3203 3
-3689 l-6 -322 -71 -6 c-39 -4 -85 -9 -102 -12 l-31 -6 -8 334 c-6 297 -24
4478 -19 4486 1 2 23 -27 49 -65 l47 -68 -6 70 c-9 108 -108 479 -136 508 -4
4 -25 -23 -46 -60z m326 -6074 l0 -722 -62 5 c-35 3 -82 11 -105 18 l-43 13 0
693 0 692 53 10 c28 5 76 10 105 11 l52 1 0 -721z m257 710 l63 -11 0 -184 c0
-157 -2 -184 -15 -184 -8 0 -15 -6 -15 -13 0 -7 -6 -21 -13 -31 -18 -24 -44
-11 -57 30 -10 29 -8 50 10 125 12 49 20 93 17 96 -15 15 -67 -179 -67 -249 0
-42 5 -54 30 -80 17 -16 36 -28 43 -26 6 2 24 28 39 58 l28 53 -6 -479 c-3
-263 -7 -484 -9 -490 -3 -12 -108 -34 -158 -34 l-27 0 0 715 0 715 37 0 c20 0
65 -5 100 -11z m483 -101 c178 -58 268 -103 485 -247 105 -69 158 -113 275
-231 365 -364 576 -759 657 -1225 24 -138 24 -488 0 -634 -26 -159 -66 -317
-104 -407 -53 -128 -152 -296 -228 -389 -185 -227 -506 -385 -817 -402 l-107
-6 -19 44 c-38 90 -86 238 -80 245 4 3 29 -12 55 -35 26 -22 50 -36 51 -30 7
19 -51 118 -130 223 -43 58 -83 108 -88 111 -12 7 -23 -19 -47 -110 -16 -59
-16 -66 -1 -82 13 -14 108 -331 108 -359 0 -4 -46 -4 -102 -2 -134 7 -242 43
-348 114 l-78 52 -5 -27 -6 -27 -88 7 c-48 4 -134 3 -190 -1 -126 -11 -198
-38 -490 -183 -252 -125 -352 -161 -441 -159 -119 1 -174 50 -180 161 -5 87
18 147 113 293 l70 107 133 46 c73 25 135 45 137 45 3 0 5 -31 5 -70 0 -95 28
-166 86 -220 54 -50 116 -79 165 -80 45 0 135 45 219 110 377 293 359 282 664
371 293 84 395 129 483 211 100 95 133 194 140 430 l6 166 91 30 c102 34 265
77 270 71 6 -7 26 -741 26 -944 0 -105 -4 -205 -10 -224 -9 -33 -9 -33 10 -16
31 28 78 155 96 256 14 82 16 150 10 531 l-6 436 50 11 c70 15 139 14 271 -5
61 -8 118 -13 125 -10 7 3 31 41 53 84 l40 80 -268 52 -268 52 -7 155 c-4 86
-5 158 -2 160 5 5 115 32 217 52 40 8 69 23 98 47 39 34 55 74 29 74 -7 0 -87
-20 -177 -45 -91 -24 -166 -43 -167 -42 -1 1 -5 48 -9 105 l-7 102 35 0 c20 0
73 -12 117 -26 45 -14 83 -24 85 -22 2 2 22 38 46 82 33 61 39 80 28 86 -7 5
-78 27 -158 49 -79 23 -146 43 -149 45 -2 2 -6 24 -8 48 l-5 43 45 -48 45 -48
-5 38 c-13 89 -75 284 -139 437 l-17 39 -45 -84 -45 -84 16 -45 c11 -31 16
-79 16 -154 l0 -108 -27 7 c-38 9 -306 115 -314 123 -9 9 -18 162 -10 162 3
-1 24 -29 45 -63 47 -74 54 -64 36 55 -19 132 -110 448 -129 448 -5 0 -25 -26
-46 -57 l-38 -58 2 -212 c2 -150 -1 -213 -9 -213 -6 0 -38 14 -71 30 -67 34
-140 51 -183 43 -15 -3 -43 -21 -62 -40 -40 -39 -88 -129 -74 -138 5 -3 75
-28 156 -56 137 -47 148 -49 165 -33 13 12 28 15 54 10 l35 -7 0 -113 0 -114
-67 -20 c-115 -35 -361 -92 -394 -92 -8 0 -2 1310 6 1337 4 12 156 -23 295
-69z m-1077 -75 c10 -205 8 -1153 -2 -1153 -22 0 -86 90 -126 175 -25 55 -53
100 -67 109 -73 48 -190 -60 -286 -261 -39 -84 -51 -163 -34 -225 l10 -36 -67
-16 c-90 -22 -235 -95 -431 -217 -271 -168 -322 -198 -380 -220 -71 -27 -131
-19 -172 21 -26 26 -28 34 -28 103 0 89 22 166 83 291 40 81 51 136 27 136
-13 0 -105 -195 -134 -281 -63 -189 -56 -318 22 -401 l25 -27 -18 -63 c-53
-186 -60 -311 -21 -393 13 -27 35 -60 49 -73 24 -22 25 -28 20 -103 -7 -96 11
-217 42 -286 48 -108 157 -192 295 -229 81 -22 282 -22 388 -1 50 10 72 11 69
3 -3 -6 -26 -45 -51 -86 -67 -107 -98 -212 -99 -326 -1 -80 3 -98 27 -147 46
-96 135 -140 281 -140 98 -1 111 5 420 159 271 135 337 154 541 154 l120 0 12
-84 c6 -47 21 -108 33 -136 36 -85 170 -191 197 -157 14 16 39 108 52 187 6
36 13 75 15 87 l5 22 58 -21 c47 -18 80 -22 183 -22 l126 0 27 -81 c40 -123
34 -151 -34 -179 -59 -24 -118 -20 -179 10 l-52 26 3 46 c4 57 -15 66 -30 14
-18 -58 -85 -156 -124 -180 -47 -29 -130 -30 -175 -2 -38 23 -38 25 -18 74 15
34 14 36 -5 36 -11 0 -57 -33 -103 -73 -103 -91 -153 -130 -196 -152 l-34 -17
20 29 c11 15 23 37 26 48 15 55 17 75 7 75 -5 0 -10 -6 -10 -13 0 -8 -8 -21
-18 -30 -16 -15 -21 -15 -37 -3 -21 15 -25 58 -13 141 l8 50 -15 -38 c-28 -73
-38 -150 -25 -196 6 -23 18 -45 26 -48 25 -9 -4 -23 -49 -23 -79 0 -133 56
-101 106 9 13 14 27 11 31 -4 3 -82 9 -174 14 -179 8 -260 19 -388 49 -376 88
-706 335 -955 715 -326 499 -439 1055 -329 1615 81 409 322 845 641 1161 216
214 470 376 773 495 104 40 280 92 316 94 13 0 17 -21 22 -137z m1443 -944
c41 -17 74 -34 74 -37 0 -10 -142 -62 -152 -56 -9 6 -11 124 -2 124 3 0 39
-14 80 -31z m-1686 -69 c10 -5 30 -40 45 -77 35 -90 90 -169 152 -218 47 -37
51 -44 57 -95 3 -30 7 -121 8 -202 4 -203 15 -191 -232 -263 -364 -105 -630
-240 -944 -478 -126 -97 -177 -123 -254 -134 l-45 -6 7 58 c3 32 16 96 28 142
20 79 23 86 62 111 67 42 204 104 506 226 207 85 293 125 316 147 34 33 46 60
35 78 -5 8 -154 -55 -445 -186 -415 -187 -439 -199 -456 -233 -20 -39 -76
-216 -85 -271 -10 -57 -20 -67 -46 -44 -53 48 -61 131 -30 292 30 152 29 151
93 145 44 -3 68 1 124 25 90 38 349 189 444 259 164 121 292 176 415 178 70 1
88 -3 145 -30 36 -17 90 -50 120 -73 l55 -42 7 48 c16 122 16 124 -64 186
-127 97 -228 210 -228 255 0 24 59 130 91 162 47 47 83 59 119 40z m1960 -204
l0 -133 -96 -29 c-80 -24 -102 -35 -130 -67 -61 -67 -55 -67 125 -11 58 18
108 31 113 28 11 -7 10 -244 -1 -244 -6 0 -81 25 -168 56 -87 30 -166 58 -176
61 -16 5 -17 21 -15 191 l3 186 100 34 c89 30 197 58 233 61 9 1 12 -32 12
-133z m-483 -263 c-2 -2 -28 9 -58 24 -63 32 -171 43 -219 23 -39 -16 -107
-90 -131 -143 -32 -71 -30 -73 64 -80 45 -2 119 -15 165 -26 l83 -22 17 22
c16 19 21 20 60 10 l43 -12 -3 -152 -3 -151 -70 -24 c-344 -115 -543 -107
-707 29 -49 41 -58 46 -58 28 0 -23 -83 -127 -130 -163 -111 -84 -217 -80
-308 13 -26 26 -54 58 -63 71 l-16 24 -18 -34 c-38 -74 -38 -82 16 -305 55
-224 61 -271 37 -307 -15 -22 -206 -133 -215 -125 -2 3 9 30 24 61 24 49 25
58 13 66 -8 5 -18 10 -22 10 -5 0 -51 -103 -71 -162 -13 -38 -245 -135 -402
-169 -101 -21 -315 -26 -406 -9 -171 32 -303 162 -317 313 -5 60 -5 60 19 53
61 -17 90 -18 131 -1 58 23 157 90 285 192 158 126 306 222 408 265 50 20 97
38 106 38 45 1 282 76 363 114 214 103 286 228 286 499 0 109 0 109 23 103 12
-4 57 -10 100 -13 l78 -6 -7 -156 c-3 -86 -9 -180 -13 -208 -7 -45 -6 -51 6
-41 46 38 97 188 111 331 l7 72 58 11 c32 7 78 15 103 19 l46 6 -4 -171 -3
-171 23 28 c13 15 29 39 36 53 18 33 43 148 52 232 l7 66 126 32 c69 18 176
48 236 68 l110 37 3 -129 c1 -71 1 -130 -1 -133z m316 -309 c93 -31 166 -58
164 -61 -7 -6 -328 -95 -332 -91 -5 6 -11 208 -5 208 3 0 81 -25 173 -56z
m-298 -571 c0 -206 -5 -231 -54 -253 -14 -6 -110 -34 -213 -61 -231 -60 -395
-113 -470 -150 -79 -40 -304 -193 -418 -284 -125 -100 -215 -145 -287 -145
-71 0 -110 21 -134 73 -19 42 -25 134 -11 169 4 9 48 44 98 77 103 68 161 132
207 230 31 66 45 153 46 292 l1 66 73 -1 c39 0 89 6 111 13 46 16 107 68 138
119 l23 37 7 -57 c9 -71 37 -127 95 -189 45 -48 148 -109 185 -109 30 0 60 81
67 180 l6 85 70 8 c90 11 291 51 375 76 36 10 70 18 75 16 6 -1 10 -73 10
-192z m-737 132 c41 -18 112 -82 112 -102 0 -20 -41 -16 -80 8 -54 33 -80 60
-80 86 0 27 0 27 48 8z"/>
<path d="M2442 4648 c-18 -22 -53 -151 -58 -213 -7 -77 18 -130 61 -130 37 0
68 56 63 112 l-4 38 -12 -28 c-16 -39 -41 -45 -64 -18 -24 30 -23 58 5 164 13
48 23 87 22 87 -2 0 -7 -6 -13 -12z"/>
<path d="M2415 3812 c-34 -25 -35 -39 -11 -93 39 -83 59 -176 53 -239 l-5 -55
16 35 c8 19 17 70 20 112 4 65 0 92 -22 163 -26 84 -31 92 -51 77z"/>
<path d="M2721 3796 c-11 -21 -10 -33 13 -88 29 -75 51 -196 42 -242 -4 -21
-3 -26 4 -16 5 8 14 45 21 82 10 57 10 81 -4 152 -21 104 -32 136 -50 136 -8
0 -19 -11 -26 -24z"/>
<path d="M3330 4528 c-28 -30 -60 -121 -69 -193 l-7 -60 -13 45 c-19 65 -47
115 -77 139 -34 26 -89 37 -109 21 -41 -34 7 -110 68 -110 51 0 71 -28 107
-155 l17 -59 17 26 c9 14 23 65 32 114 29 170 32 176 90 154 31 -12 29 -13 37
21 5 20 1 33 -18 53 -29 32 -48 33 -75 4z"/>
<path d="M3725 4276 c-16 -24 -35 -81 -35 -103 0 -23 18 -14 24 12 9 34 43 33
56 -1 15 -39 12 -92 -10 -164 -22 -74 -23 -80 -11 -80 18 0 54 136 59 222 3
70 1 93 -12 113 -21 32 -51 32 -71 1z"/>
<path d="M3125 3745 c-43 -97 -52 -142 -34 -173 13 -24 21 -27 68 -27 70 1
101 33 101 101 0 57 -8 72 -65 118 l-45 38 -25 -57z m63 -55 c52 -38 53 -56 3
-71 -45 -13 -81 0 -81 31 0 23 20 70 30 70 4 0 26 -14 48 -30z"/>
<path d="M4446 3258 c-28 -49 -42 -97 -52 -181 -7 -65 -15 -64 -33 3 -25 93
-41 117 -96 146 -46 24 -57 26 -79 16 -57 -26 -12 -112 58 -112 23 0 42 -7 54
-20 16 -17 45 -94 69 -180 9 -32 30 21 52 131 22 113 34 149 51 149 5 0 21 -5
36 -10 30 -12 44 -1 44 36 0 24 -39 64 -63 64 -9 0 -27 -19 -41 -42z"/>
<path d="M4445 2528 c-20 -24 -67 -104 -104 -178 -133 -268 -163 -425 -102
-522 49 -77 89 -87 147 -36 52 46 99 120 130 205 19 53 24 77 16 85 -16 16
-39 3 -46 -29 -4 -15 -14 -38 -22 -50 -15 -23 -76 -46 -99 -37 -27 11 -48 89
-43 163 4 58 17 96 86 252 45 100 80 184 78 186 -2 2 -20 -15 -41 -39z"/>
<path d="M3733 2515 c-20 -14 -41 -71 -30 -82 3 -2 15 0 26 7 36 18 46 0 16
-28 -56 -52 -69 -140 -40 -267 9 -36 19 -98 24 -138 l8 -72 2 88 c1 55 -7 128
-20 194 -24 120 -27 113 61 139 94 28 111 58 64 119 -19 25 -67 55 -88 55 -1
0 -11 -7 -23 -15z"/>
<path d="M3569 1881 c-51 -17 -70 -33 -94 -81 l-25 -50 107 6 c106 6 171 -4
159 -25 -3 -5 -50 -36 -104 -69 -160 -99 -165 -107 -34 -64 97 32 119 44 158
82 50 48 89 109 99 152 6 24 3 29 -20 38 -36 14 -214 22 -246 11z"/>
<path d="M4142 1762 c-12 -21 -24 -58 -28 -83 l-6 -44 21 33 c51 80 90 9 65
-121 -16 -85 -17 -98 -3 -74 21 37 59 210 53 244 -6 30 -52 83 -73 83 -4 0
-17 -17 -29 -38z"/>
<path d="M2910 1546 c-40 -80 -49 -136 -25 -172 16 -24 21 -26 68 -21 65 6 97
39 97 98 0 52 -19 87 -68 126 l-40 32 -32 -63z m73 -55 c51 -48 43 -64 -29
-59 -41 2 -50 7 -52 24 -4 26 14 74 28 74 6 0 30 -18 53 -39z"/>
<path d="M3592 1543 c-21 -4 -60 -48 -51 -58 2 -2 23 2 46 8 23 6 45 8 49 5 3
-4 -8 -26 -24 -50 -38 -56 -56 -116 -48 -162 22 -116 199 -76 321 71 61 75 57
87 -10 24 -121 -114 -295 -144 -295 -51 0 10 27 57 60 106 33 49 60 94 60 101
0 13 -56 16 -108 6z"/>
<path d="M1730 1355 c-12 -19 -28 -69 -36 -112 -26 -133 -25 -131 -35 -108 -4
11 -15 45 -23 76 -28 99 -130 164 -180 113 -19 -19 -19 -18 -1 -54 19 -37 52
-60 87 -60 35 0 61 -37 97 -135 26 -72 28 -75 39 -51 6 14 16 56 22 93 17 100
41 184 56 190 7 2 26 -3 43 -11 40 -21 41 -21 41 17 0 22 -8 41 -23 55 -34 32
-62 28 -87 -13z"/>
<path d="M2035 4587 c-16 -24 -39 -127 -30 -135 3 -3 5 2 5 10 0 9 9 26 19 39
19 23 20 23 39 6 32 -29 34 -73 8 -175 -29 -113 -10 -109 25 6 15 50 23 103
24 150 0 69 -2 75 -28 98 -35 30 -43 30 -62 1z"/>
<path d="M1638 4419 c-26 -8 -49 -26 -82 -68 -25 -32 -42 -61 -39 -65 3 -3 40
-6 82 -6 42 -1 101 -7 131 -14 66 -16 126 -45 114 -55 -9 -8 -53 -27 -219 -93
-55 -22 -102 -42 -105 -45 -3 -3 15 -3 40 1 25 4 81 12 124 17 97 12 124 23
205 85 61 46 121 121 121 152 0 18 -20 35 -85 69 -43 23 -64 27 -150 29 -55 2
-116 -2 -137 -7z"/>
<path d="M1398 4183 c-38 -44 -68 -146 -68 -235 0 -21 -4 -38 -10 -38 -5 0
-10 10 -10 23 0 12 -15 55 -34 94 -29 59 -42 76 -75 92 -48 25 -74 26 -95 5
-23 -23 -20 -48 10 -78 20 -19 37 -26 65 -26 35 0 40 -4 60 -42 12 -24 32 -72
44 -108 l22 -65 17 32 c9 18 23 71 31 119 9 47 22 101 30 121 15 36 24 38 79
17 13 -5 16 1 16 28 0 64 -48 100 -82 61z"/>
<path d="M1760 3966 c-481 -182 -884 -350 -924 -385 -23 -20 -48 -68 -44 -85
2 -9 52 9 155 55 206 92 581 241 864 344 210 76 238 89 272 125 40 42 48 70
20 70 -10 -1 -164 -56 -343 -124z"/>
<path d="M1462 3618 c-6 -23 -2 -53 15 -111 27 -93 28 -116 7 -124 -46 -17
-89 44 -105 150 -14 91 -18 107 -31 107 -8 0 -9 -26 -5 -90 8 -132 -13 -190
-72 -190 -39 0 -51 33 -51 141 0 80 -2 90 -17 87 -10 -2 -24 -15 -33 -30 -13
-24 -13 -31 -1 -50 8 -13 18 -59 22 -103 8 -93 24 -135 51 -135 28 0 80 28
105 57 l21 26 33 -27 c24 -20 39 -26 58 -21 43 10 71 50 71 100 0 55 -40 245
-51 245 -5 0 -12 -14 -17 -32z"/>
<path d="M1054 3472 c-41 -32 -74 -133 -74 -222 0 -22 -4 -40 -10 -40 -5 0
-10 7 -10 15 0 30 -58 141 -89 170 -34 32 -87 39 -115 16 -40 -33 4 -99 71
-108 57 -8 77 -33 107 -133 l24 -85 16 36 c8 19 22 76 30 126 24 133 32 154
62 147 49 -12 59 -10 62 17 3 23 -30 79 -46 79 -4 0 -17 -8 -28 -18z"/>
<path d="M2440 951 c-407 -106 -482 -130 -522 -169 -40 -38 -50 -67 -20 -58 9
2 62 18 117 35 182 55 497 141 519 141 31 1 101 52 104 78 2 12 0 22 -5 21 -4
0 -91 -22 -193 -48z"/>
<path d="M2663 2945 c-3 -9 2 -35 10 -58 9 -23 18 -55 20 -72 l4 -30 8 33 c6
25 12 32 24 28 9 -3 43 -15 76 -27 51 -18 74 -20 155 -16 52 3 131 15 174 26
119 29 133 16 64 -59 l-43 -45 48 45 c27 25 55 58 64 74 14 26 13 30 -5 48
-19 19 -20 19 -88 -1 -141 -42 -300 -46 -385 -9 -19 9 -51 30 -71 47 -41 35
-46 37 -55 16z"/>
<path d="M2312 2808 c-22 -22 -14 -63 19 -94 44 -42 69 -79 95 -142 l22 -56 7
36 c13 67 -30 171 -97 236 -26 25 -37 29 -46 20z"/>
<path d="M1872 2499 c-7 -18 -2 -32 25 -67 40 -53 71 -111 89 -167 l13 -40 0
46 c1 62 -23 137 -62 195 -38 56 -54 64 -65 33z"/>
<path d="M1394 2169 c-19 -39 -34 -72 -32 -74 9 -8 169 -85 176 -85 9 0 68
138 61 144 -18 14 -148 86 -157 86 -6 0 -28 -32 -48 -71z"/>
<path d="M1840 2159 c-39 -84 -40 -82 73 -133 l78 -35 26 57 c14 31 29 65 34
74 8 15 -4 24 -81 63 -49 25 -91 45 -93 45 -2 0 -19 -32 -37 -71z"/>
<path d="M1161 2090 c-17 -39 -31 -75 -31 -80 0 -14 172 -92 180 -83 10 12 50
123 50 139 0 11 -145 94 -163 94 -3 0 -18 -32 -36 -70z"/>
<path d="M1664 2092 c-28 -26 -61 -63 -73 -83 -34 -59 -103 -114 -192 -157
-293 -139 -349 -166 -346 -168 2 -2 57 7 123 19 96 19 136 32 201 67 129 68
173 106 212 182 l33 66 36 -24 c68 -46 107 -43 125 10 17 51 -18 137 -56 136
-7 0 -35 -22 -63 -48z m80 -44 c20 -28 20 -38 2 -38 -16 0 -66 38 -66 51 0 18
49 9 64 -13z"/>
<path d="M3285 2337 c-8 -30 -4 -64 19 -162 12 -53 12 -61 -2 -72 -22 -18 -30
-16 -56 11 -15 14 -28 45 -36 82 -31 155 -32 156 -44 144 -7 -7 -10 -43 -8
-100 4 -131 -25 -188 -83 -162 -33 15 -49 79 -41 160 6 56 5 62 -12 62 -10 0
-23 -5 -30 -12 -14 -14 -16 -64 -3 -72 4 -3 11 -39 14 -81 7 -101 30 -141 78
-137 25 1 44 13 71 41 l37 39 27 -29 c37 -39 76 -38 116 1 29 30 30 34 24 89
-7 62 -37 177 -54 208 -9 16 -11 15 -17 -10z"/>
<path d="M2306 2211 c-17 -19 -16 -20 36 -26 l55 -7 -57 -56 c-64 -65 -79
-106 -55 -153 25 -47 57 -62 123 -57 68 5 148 40 210 93 59 51 52 60 -15 19
-125 -75 -288 -83 -306 -14 -5 19 10 39 79 111 47 49 83 93 79 99 -3 5 -34 10
-69 10 -49 0 -67 -4 -80 -19z"/>
<path d="M2890 2023 c-157 -59 -808 -350 -834 -372 -20 -17 -61 -100 -53 -107
3 -3 60 24 128 60 149 78 227 112 509 222 185 72 220 89 248 121 17 20 32 47
32 60 0 24 -4 26 -30 16z"/>
<path d="M1589 9695 c-36 -7 -124 -31 -196 -53 -135 -42 -251 -67 -260 -58 -3
3 6 21 21 41 15 19 25 35 22 35 -12 0 -296 -145 -296 -151 0 -7 135 -69 151
-69 7 0 17 7 23 15 7 10 57 21 156 34 151 21 266 50 487 125 l132 44 15 -33
c36 -76 37 -176 2 -242 -23 -44 -97 -110 -146 -132 -57 -24 -144 -37 -345 -51
-88 -6 -194 -18 -235 -26 -89 -19 -235 -73 -223 -84 4 -4 38 -19 75 -35 l68
-28 120 27 c248 55 473 55 580 1 154 -78 210 -284 109 -399 -47 -53 -91 -75
-175 -87 -72 -10 -164 1 -416 51 -158 31 -198 29 -198 -9 0 -10 20 -40 45 -66
79 -81 210 -131 549 -211 130 -30 237 -76 276 -118 79 -86 -27 -210 -227 -265
l-72 -19 -55 73 c-55 73 -142 153 -217 201 -30 19 -39 32 -46 66 -7 36 -13 44
-40 52 -64 18 -114 -24 -155 -129 -14 -35 -14 -45 -3 -73 13 -29 18 -32 60
-32 61 0 112 23 133 60 9 16 20 30 23 30 11 0 171 -143 218 -195 l44 -48 -24
-9 c-13 -6 -86 -8 -161 -6 -144 4 -166 -9 -31 -18 43 -2 119 -8 170 -12 50 -4
100 -4 110 -1 10 4 48 14 85 23 81 18 198 66 262 106 83 53 110 136 64 196
-62 79 -96 93 -433 180 -137 35 -272 76 -300 89 -60 29 -113 70 -103 80 4 4
55 -5 115 -19 345 -82 510 -75 636 27 164 134 160 278 -10 419 -71 59 -162
101 -292 135 -25 6 -3 15 74 28 96 17 174 56 226 112 93 101 102 236 23 340
-66 87 -238 123 -415 88z m-327 -1430 c5 -43 3 -45 -39 -45 -39 0 -39 2 -12
46 27 44 46 43 51 -1z m6 -96 c-4 -44 -30 -59 -57 -35 -27 25 -26 32 7 50 43
24 54 20 50 -15z"/>
<path d="M1530 9414 c-19 -8 -45 -24 -56 -35 -20 -19 -27 -19 -80 -10 -83 16
-194 13 -245 -4 -55 -20 -119 -63 -119 -81 0 -22 47 -28 73 -10 94 68 99 71
171 74 59 3 91 -2 191 -33 66 -20 142 -37 169 -38 46 -2 51 0 64 26 17 36 9
72 -25 103 -31 28 -88 32 -143 8z m90 -34 c32 -64 28 -74 -27 -65 -61 9 -65
12 -57 38 7 24 43 67 56 67 4 0 17 -18 28 -40z"/>
<path d="M1630 8993 c-33 -5 -124 -31 -158 -44 -25 -11 -26 -12 -7 -19 34 -14
81 -11 127 8 75 33 96 35 108 12 27 -50 -33 -93 -146 -106 -142 -16 -133 -47
11 -38 74 6 97 4 124 -10 27 -15 32 -22 29 -49 -4 -46 -51 -67 -145 -67 -40 0
-73 -4 -73 -8 0 -29 80 -57 94 -33 3 4 37 11 75 14 72 6 128 27 138 53 9 23
-17 72 -53 103 l-34 27 30 29 c47 45 36 95 -25 121 -34 14 -48 15 -95 7z"/>
<path d="M1179 8877 c-52 -15 -96 -44 -134 -89 l-28 -33 29 -12 c44 -19 53
-16 101 28 63 58 121 80 220 87 60 3 81 8 73 16 -16 16 -207 18 -261 3z"/>
<path d="M3622 902 c-26 -20 -44 -82 -31 -103 5 -8 9 -24 9 -36 0 -26 39 -59
80 -68 42 -9 107 12 127 41 19 30 22 104 4 138 -7 13 -24 29 -38 35 -38 17
-124 13 -151 -7z"/>
<path d="M3019 391 c-112 -48 -214 -93 -226 -99 -22 -12 -49 -50 -41 -58 2 -2
62 23 134 55 71 33 169 74 218 93 61 23 95 42 109 60 11 15 18 30 16 33 -3 2
-97 -35 -210 -84z"/>
</g>
</svg>
